<?xml version="1.0" standalone="no"?><!DOCTYPE svg PUBLIC "-//W3C//DTD SVG 1.1//EN" "http://www.w3.org/Graphics/SVG/1.1/DTD/svg11.dtd"><svg t="1663415285301" class="icon" viewBox="0 0 1024 1024" version="1.1" xmlns="http://www.w3.org/2000/svg" p-id="15112" xmlns:xlink="http://www.w3.org/1999/xlink" width="200" height="200"><path d="M734.4 675H290.3c-27.2 0-49.5-21.5-50.4-48.7L233.7 447V279.8c0-33.6 27.2-60.8 60.8-60.8h435.8c33.6 0 60.8 27.2 60.8 60.8V447l-6.2 179.3c-1 27.2-23.3 48.7-50.5 48.7z" fill="#FFA1BE" p-id="15113"></path><path d="M290.8 665.1c-0.8 0-1.6-0.1-2.4-0.4-21.5-7.1-36.4-27.1-37.2-49.6l-5.8-166.6V293.4c0-37 24.5-63.9 58.3-63.9 4.1 0 7.5 3.4 7.5 7.5s-3.4 7.5-7.5 7.5c-25.5 0-43.3 20.1-43.3 48.9v155l5.8 166.2c0.6 16.3 11.4 30.8 27 35.9 3.9 1.3 6.1 5.5 4.8 9.5-1.1 3.1-4 5.1-7.2 5.1zM733.9 665.1c-3.1 0-6.1-2-7.1-5.1-1.3-3.9 0.8-8.2 4.8-9.5 15.6-5.2 26.4-19.6 27-35.9l5.8-166.2v-155c0-28.8-17.8-48.9-43.3-48.9-4.1 0-7.5-3.4-7.5-7.5s3.4-7.5 7.5-7.5c33.8 0 58.3 26.9 58.3 63.9v155.4L773.5 615c-0.8 22.6-15.8 42.5-37.3 49.7-0.7 0.3-1.5 0.4-2.3 0.4z m37.9-216.6z" fill="#FFFFFF" p-id="15114"></path><path d="M677.1 463.6H347.6c-24.3 0-43.9-19.7-43.9-43.9V219H721v200.7c0 24.2-19.6 43.9-43.9 43.9z" fill="#FFD2E2" p-id="15115"></path><path d="M575.9 404.3H448.8c-24.3 0-43.9-19.7-43.9-43.9v-82.1h215v82.1c0 24.2-19.7 43.9-44 43.9z" fill="#FFA1BE" p-id="15116"></path><path d="M733.9 675h-443v-77c0-28.3 22.9-51.2 51.2-51.2h340.6c28.3 0 51.2 22.9 51.2 51.2v77z" fill="#DD7A97" p-id="15117"></path><path d="M730.3 211.5h-39c-13.3-9-27.3-17-41.7-24-3.7-1.8-8.2-0.2-10 3.5-1.8 3.7-0.2 8.2 3.5 10 6.7 3.2 13.3 6.8 19.8 10.5h-301c5.3-3 10.6-5.9 16-8.6 3.7-1.9 5.2-6.4 3.3-10.1-1.9-3.7-6.4-5.2-10.1-3.3-12.9 6.5-25.6 13.9-37.6 22h-39c-37.7 0-68.3 30.6-68.3 68.3V447l6.2 179.6c1 29 22.8 52.2 50.9 55.5v0.4h458.1v-0.4c28.1-3.3 49.9-26.5 50.9-55.5l6.2-179.3V279.8c0.1-37.7-30.6-68.3-68.2-68.3z m-419.1 15H713.5v193.2c0 20.1-16.3 36.4-36.4 36.4H347.6c-20.1 0-36.4-16.3-36.4-36.4V226.5z m-12.9 441V598c0-24.1 19.6-43.7 43.7-43.7h340.6c24.1 0 43.7 19.6 43.7 43.7v69.5h-428z m485.3-220.6l-6.2 179.2c-0.7 20.9-16 37.7-36 40.9v-69c0-32.4-26.3-58.7-58.7-58.7H342.1c-32.4 0-58.7 26.3-58.7 58.7v69c-20-3.2-35.2-20-36-40.9l-6.2-179.2V279.8c0-29.4 23.9-53.3 53.3-53.3h1.7v193.2c0 28.4 23.1 51.4 51.4 51.4H677c28.4 0 51.4-23.1 51.4-51.4V226.5h1.7c29.4 0 53.3 23.9 53.3 53.3v167.1z" fill="#231815" p-id="15118"></path><path d="M513.7 170.4c36.7 0.2 73.1 7.3 108.1 21.2 0.9 0.4 1.8 0.5 2.8 0.5 3 0 5.8-1.8 7-4.7 1.5-3.9-0.4-8.2-4.2-9.7-36.8-14.6-75-22.1-113.6-22.3-4.1 0-7.5 3.3-7.5 7.5-0.1 4.1 3.2 7.5 7.4 7.5zM421 184.7c0.8 0 1.5-0.1 2.3-0.4 22.9-7.3 46.5-11.8 70.1-13.3 4.1-0.3 7.3-3.8 7-8-0.3-4.1-3.8-7.3-8-7-24.8 1.6-49.5 6.3-73.6 14-3.9 1.3-6.1 5.5-4.9 9.4 1 3.3 3.9 5.3 7.1 5.3zM392.3 195.4c1 0 2-0.2 2.9-0.6 3.3-1.4 6.7-2.8 10-4.1 3.9-1.5 5.8-5.8 4.3-9.7-1.5-3.9-5.8-5.8-9.7-4.3-3.5 1.4-7 2.8-10.5 4.3-3.8 1.6-5.6 6-3.9 9.8 1.2 2.9 4 4.6 6.9 4.6zM448.8 411.8h127.1c28.4 0 51.4-23.1 51.4-51.4v-89.6h-230v89.6c0.1 28.3 23.2 51.4 51.5 51.4z m-36.4-126h200v74.6c0 20.1-16.3 36.4-36.4 36.4H448.8c-20.1 0-36.4-16.3-36.4-36.4v-74.6z" fill="#231815" p-id="15119"></path><path d="M156.3 161.3c-22.1 0-40-17.9-40-40s17.9-40 40-40 40 17.9 40 40-17.9 40-40 40z m0-70c-16.5 0-30 13.5-30 30s13.5 30 30 30 30-13.5 30-30-13.4-30-30-30z" fill="#7286E8" p-id="15120"></path><path d="M153 234.3h-18v-18c0-0.2-0.1-0.5-0.2-0.6-5.1-5.5-11.4-1.9-11.4 3.1v15.5h-18c-0.2 0-0.5 0.1-0.6 0.2-5.5 5.1-1.9 11.4 3.1 11.4h15.5v18c0 0.2 0.1 0.5 0.2 0.6 5.1 5.5 11.4 1.9 11.4-3.1v-15.5h15.5c5 0 8.5-6.3 3.1-11.4-0.2-0.1-0.4-0.2-0.6-0.2z" fill="#FF6A66" p-id="15121"></path><path d="M870.2 882.5H745.4c-4.1 0-7.5-3.4-7.5-7.5s3.4-7.5 7.5-7.5h124.8c4.1 0 7.5 3.4 7.5 7.5s-3.4 7.5-7.5 7.5zM695.1 882.5H175.2c-4.1 0-7.5-3.4-7.5-7.5s3.4-7.5 7.5-7.5h519.9c4.1 0 7.5 3.4 7.5 7.5s-3.4 7.5-7.5 7.5zM961.9 935.7H858.1c-4.1 0-7.5-3.4-7.5-7.5s3.4-7.5 7.5-7.5h103.8c4.1 0 7.5 3.4 7.5 7.5s-3.3 7.5-7.5 7.5zM821.1 935.7h-44c-4.1 0-7.5-3.4-7.5-7.5s3.4-7.5 7.5-7.5h44c4.1 0 7.5 3.4 7.5 7.5s-3.4 7.5-7.5 7.5zM742.1 935.7h-531c-4.1 0-7.5-3.4-7.5-7.5s3.4-7.5 7.5-7.5h531c4.1 0 7.5 3.4 7.5 7.5s-3.4 7.5-7.5 7.5zM155.4 935.7h-43.5c-4.1 0-7.5-3.4-7.5-7.5s3.4-7.5 7.5-7.5h43.5c4.1 0 7.5 3.4 7.5 7.5s-3.3 7.5-7.5 7.5z" fill="#231815" p-id="15122"></path><path d="M925.8 165.3H886v-39.8c0-3.2-2.6-5.8-5.8-5.8-3.2 0-5.8 2.6-5.8 5.8v39.8h-39.8c-3.2 0-5.8 2.6-5.8 5.8 0 3.2 2.6 5.8 5.8 5.8h39.8v39.8c0 3.2 2.6 5.8 5.8 5.8 3.2 0 5.8-2.6 5.8-5.8v-39.8h39.8c3.2 0 5.8-2.6 5.8-5.8 0-3.2-2.6-5.8-5.8-5.8z" fill="#FFF148" p-id="15123"></path><path d="M253.6 773.9h-24.2v-24.2c0-2-1.6-3.5-3.5-3.5-2 0-3.5 1.6-3.5 3.5v24.2H198c-2 0-3.5 1.6-3.5 3.5 0 2 1.6 3.5 3.5 3.5h24.2v24.2c0 2 1.6 3.5 3.5 3.5 2 0 3.5-1.6 3.5-3.5V781h24.2c2 0 3.5-1.6 3.5-3.5 0.2-2-1.4-3.6-3.3-3.6z" fill="#FF8B4A" p-id="15124"></path><path d="M524 72.6l-16-16 16-16c0.6-9.6-8.2-12.2-12.6-7.7l-13.6 13.6-16-16c-9.6-0.6-12.2 8.2-7.7 12.6l13.6 13.6-16 16c-0.6 9.6 8.2 12.2 12.6 7.7l13.6-13.6 13.6 13.6c4.4 4.4 13.2 1.8 12.5-7.8z" fill="#66FFE2" p-id="15125"></path><path d="M880.1 788.3c-17.1 0-31-13.9-31-31s13.9-31 31-31 31 13.9 31 31-13.9 31-31 31z m0-56c-13.8 0-25 11.2-25 25s11.2 25 25 25 25-11.2 25-25-11.2-25-25-25z" fill="#FF5AF3" p-id="15126"></path><path d="M175.5 540.4c-11.9 0-21.5-9.7-21.5-21.5 0-11.9 9.7-21.5 21.5-21.5 11.9 0 21.5 9.7 21.5 21.5s-9.7 21.5-21.5 21.5z m0-35.1c-7.5 0-13.5 6.1-13.5 13.5 0 7.5 6.1 13.5 13.5 13.5 7.5 0 13.5-6.1 13.5-13.5s-6.1-13.5-13.5-13.5zM889.2 499.7c-26.6 0-48.2-21.6-48.2-48.2s21.6-48.2 48.2-48.2 48.2 21.6 48.2 48.2-21.6 48.2-48.2 48.2z m0-88.3c-22.2 0-40.2 18-40.2 40.2 0 22.2 18 40.2 40.2 40.2s40.2-18 40.2-40.2c0-22.2-18-40.2-40.2-40.2z" fill="#FF5290" p-id="15127"></path></svg>