<?xml version="1.0" standalone="no"?><!DOCTYPE svg PUBLIC "-//W3C//DTD SVG 1.1//EN" "http://www.w3.org/Graphics/SVG/1.1/DTD/svg11.dtd"><svg t="1662988571662" class="icon" viewBox="0 0 1050 1024" version="1.1" xmlns="http://www.w3.org/2000/svg" p-id="7818" xmlns:xlink="http://www.w3.org/1999/xlink" width="205.078125" height="200"><path d="M1018.825649 207.054252h-144.199929l-1.163226-1.323671h-106.014024a16.044498 16.044498 0 0 1 0-32.088997H922.558659a16.044498 16.044498 0 0 0 0-32.088997h-119.451291A454.019194 454.019194 0 0 0 103.045791 649.802186H41.434917a16.044498 16.044498 0 0 0 0 32.088997h73.604137a452.174077 452.174077 0 0 0 32.931333 64.177993h174.283364a16.044498 16.044498 0 0 1 0 32.088997h-152.422735a454.259861 454.259861 0 0 0 58.000861 64.177994H28.077872a16.044498 16.044498 0 0 0 0 32.088997h236.656352a16.044498 16.044498 0 0 0 2.005562 0 453.89886 453.89886 0 0 0 633.757687-634.880803H1018.825649a16.044498 16.044498 0 0 0 0-32.088997zM202.561792 632.915351H124.344863a16.044498 16.044498 0 0 1 0-32.088997h78.216929a16.044498 16.044498 0 0 1 0 32.088997z m375.361041-397.101336a16.044498 16.044498 0 0 1-16.044499 16.044499h-72.842022a16.044498 16.044498 0 0 1-16.044499-16.044499 16.044498 16.044498 0 0 1 16.044499-16.044498h72.842022a16.044498 16.044498 0 0 1 16.044499 16.044498z" fill="#F9C5C5" opacity=".7" p-id="7819"></path><path d="M885.134866 1024a12.033374 12.033374 0 0 1 0-24.066748H1038.881272a12.033374 12.033374 0 0 1 0 24.066748zM829.259901 1024h-49.457167a12.033374 12.033374 0 0 1 0-24.066748h49.457167a12.033374 12.033374 0 0 1 0 24.066748zM508.490266 1024H106.014023a12.033374 12.033374 0 1 1 0-24.066748h635.281915a12.033374 12.033374 0 0 1 0 24.066748zM41.434917 1024H12.033374a12.033374 12.033374 0 0 1 0-24.066748h54.912296a12.033374 12.033374 0 1 1 0 24.066748z" fill="#1E1E1E" p-id="7820"></path><path d="M910.324729 49.737945l-18.932508-4.17157-14.15927 13.236712-1.885229-19.29351L858.380665 30.163657l17.729171-7.781582 3.690235-19.01273 12.875709 14.480159 19.213287-2.406674-9.787144 16.726389 8.222806 17.568726zM33.81378 830.623683l-2.166007-22.301853-19.614399-10.830036 20.496847-8.944808 4.251792-21.980963 14.881272 16.72639 22.22163-2.767676-11.311371 19.33362 9.626699 20.256179-21.860629-4.813349z m-12.715265-32.690666l14.319715 8.02225 1.60445 16.285165 12.033374-11.191037 16.044498 3.529789-6.939245-14.841161 8.262916-14.119158-16.245054 2.045673-10.870148-12.274041-3.088566 16.044498z" fill="#F7D854" p-id="7821"></path><path d="M106.014023 211.386267a19.734733 19.734733 0 1 1 19.694622-19.694622 19.734733 19.734733 0 0 1-19.694622 19.694622z m0-31.407106a11.712484 11.712484 0 1 0 11.672373 11.712484 11.712484 11.712484 0 0 0-11.672373-11.712484z" fill="#25D8EF" p-id="7822"></path><path d="M20.456735 511.458498a4.011125 4.011125 0 0 1 0-8.022249l38.105684-0.521446a4.011125 4.011125 0 0 1 0 8.022249l-38.105684 0.521446z" fill="#45EF37" p-id="7823"></path><path d="M39.750245 530.270673a4.011125 4.011125 0 0 1-4.011125-4.011125l-0.521446-38.105684a4.011125 4.011125 0 0 1 4.011125-4.011124 4.011125 4.011125 0 0 1 4.011124 4.011124l0.521446 38.105684a4.011125 4.011125 0 0 1-4.011124 4.011125z" fill="#45EF37" p-id="7824"></path><path d="M1018.825649 445.234831a22.903521 22.903521 0 1 1 22.903522-22.903522A22.903521 22.903521 0 0 1 1018.825649 445.234831z m0-41.795918a18.892397 18.892397 0 1 0 18.892397 18.892396 18.892397 18.892397 0 0 0-18.892397-18.892396z" fill="#F7802F" p-id="7825"></path><path d="M858.380665 916.702417m-27.075091 0a27.075091 27.075091 0 1 0 54.150182 0 27.075091 27.075091 0 1 0-54.150182 0Z" fill="#5886FF" p-id="7826"></path><path d="M160.444984 23.063966a4.011125 4.011125 0 0 0 4.011125-4.011124V4.011125a4.011125 4.011125 0 0 0-8.022249 0v15.041717a4.011125 4.011125 0 0 0 4.011124 4.011124zM148.973168 25.189863a4.011125 4.011125 0 0 0 5.695797-5.695797l-10.62948-10.589369a4.011125 4.011125 0 0 0-5.695797 5.655685zM152.101845 30.765326a4.011125 4.011125 0 0 0-4.011125-4.011125h-15.041717a4.011125 4.011125 0 0 0 0 8.022249h15.001606a4.011125 4.011125 0 0 0 4.051236-4.011124zM148.41161 36.541345l-10.62948 10.62948a4.011125 4.011125 0 0 0 5.695797 5.695797l10.62948-10.62948A4.011125 4.011125 0 0 0 148.41161 36.541345zM159.803204 39.108465a4.011125 4.011125 0 0 0-4.011124 4.011124v15.041718a4.011125 4.011125 0 0 0 8.022249 0v-15.041718a4.011125 4.011125 0 0 0-4.011125-4.011124zM171.275021 36.982569a4.011125 4.011125 0 1 0-5.695797 5.695797l10.62948 10.589369a4.011125 4.011125 0 0 0 5.655686 0 4.011125 4.011125 0 0 0 0-5.655686zM187.159074 27.35587h-15.001606a4.011125 4.011125 0 0 0 0 8.022249h15.001606a4.011125 4.011125 0 1 0 0-8.022249zM171.676133 25.631086l10.62948-10.62948A4.011125 4.011125 0 0 0 176.489483 9.305809L165.980336 20.055623a4.011125 4.011125 0 0 0 5.695797 5.575463z" fill="#FA7F80" p-id="7827"></path><path d="M999.131027 703.350699a4.011125 4.011125 0 0 0 4.011125-4.011124v-15.041718a4.011125 4.011125 0 0 0-8.022249 0v15.001606a4.011125 4.011125 0 0 0 4.011124 4.051236zM987.699322 705.476595a4.011125 4.011125 0 0 0 5.695797-5.695797l-10.669591-10.62948a4.011125 4.011125 0 0 0-5.695797 5.695797zM990.747777 711.052058a4.011125 4.011125 0 0 0-4.011125-4.011124h-15.001606a4.011125 4.011125 0 0 0 0 8.022249H986.736652a4.011125 4.011125 0 0 0 4.011125-4.011125zM987.258099 716.828078l-10.629481 10.589369a4.011125 4.011125 0 0 0 5.695797 5.695797l10.629481-10.62948a4.011125 4.011125 0 0 0 0-5.655686 4.011125 4.011125 0 0 0-5.695797 0zM998.529359 719.395198a4.011125 4.011125 0 0 0-4.011125 4.011124v15.001606a4.011125 4.011125 0 1 0 8.022249 0v-15.001606a4.011125 4.011125 0 0 0-4.011124-4.011124zM1010.001175 717.22919a4.011125 4.011125 0 1 0-5.695797 5.695797l10.62948 10.62948a4.011125 4.011125 0 1 0 5.655686-5.695796zM1025.885229 707.642603H1010.8034a4.011125 4.011125 0 0 0 0 8.022249h15.001606a4.011125 4.011125 0 1 0 0-8.022249zM1010.402288 705.95793l10.62948-10.62948a4.011125 4.011125 0 0 0-5.695797-5.695797l-10.62948 10.62948a4.011125 4.011125 0 0 0 5.695797 5.695797z" fill="#C39DF4" p-id="7828"></path><path d="M376.042932 792.598222a4.011125 4.011125 0 0 1-0.882448-8.02225l35.09734-8.022249a4.011125 4.011125 0 1 1 1.764895 7.781582l-35.09734 8.022249a3.329233 3.329233 0 0 1-0.882447 0.240668z" fill="#FFFFFF" p-id="7829"></path><path d="M568.81758 841.975165v-147.689607a15.803831 15.803831 0 0 1 12.514709-15.362608c97.390105-21.740295 171.676133-136.137569 171.676133-273.95981a368.181127 368.181127 0 0 0-2.125896-39.670022 15.643386 15.643386 0 0 0-15.563164-13.958714H359.837988a15.643386 15.643386 0 0 0-15.563163 13.958714 368.181127 368.181127 0 0 0-2.125896 39.830467c0 135.977124 72.200243 249.010615 167.745231 272.957029a15.76372 15.76372 0 0 1 12.033373 15.242274V842.336167a15.683497 15.683497 0 0 1-15.001606 15.643386 681.891183 681.891183 0 0 0-108.701476 12.434486 15.683497 15.683497 0 0 0 3.168788 31.005993h296.823221c18.772063 0 21.700184-27.03498 3.369344-30.965882a704.754593 704.754593 0 0 0-117.525951-12.715265 15.643386 15.643386 0 0 1-15.242273-15.76372z" fill="#E3F9FD" p-id="7830"></path><path d="M697.695014 882.728191a38.466685 38.466685 0 0 1 2.166007-4.251792c-29.200987-11.792706-80.222492-20.055623-139.627248-21.25896v-176.008148C648.879627 666.849465 717.991304 548.641623 717.991304 405.123585c0-14.038936-0.681891-27.837205-1.965451-41.354695a12.675154 12.675154 0 0 0-11.752595-12.274041h-14.80105a441.584708 441.584708 0 0 1 3.289122 53.628736c0 143.678483-69.151788 261.886325-157.837753 276.246151v176.008148c78.096596 1.684672 141.993811 15.362607 160.444984 33.412668a36.340789 36.340789 0 0 1 2.326453-8.062361z" fill="#B7EFF7" p-id="7831"></path><path d="M507.768264 418.80152a4.011125 4.011125 0 0 1-3.008344-1.403894 4.011125 4.011125 0 0 1 0.401113-5.655685l143.798817-124.986643a14.319715 14.319715 0 0 1 3.048454-2.005562 13.236711 13.236711 0 0 1 5.415018-3.52979l180.019273-62.45321a13.557601 13.557601 0 1 1 8.904696 25.631086l-41.996474 14.560382a4.011125 4.011125 0 1 1-2.607231-7.581025L843.699949 236.656352a5.575463 5.575463 0 0 0 3.449567-7.05958 5.575463 5.575463 0 0 0-7.059579-3.449567L660.070665 288.800971a5.896353 5.896353 0 0 0-2.527009 1.764895 3.730346 3.730346 0 0 1-1.684672 1.243449 6.217243 6.217243 0 0 0-1.644561 1.002781l-143.798817 124.986643a4.011125 4.011125 0 0 1-2.647342 1.002781z" fill="#1E1E1E" p-id="7832"></path><path d="M574.754044 385.910298a4.011125 4.011125 0 0 1-2.647342-7.019468l89.407968-77.695484c0.240667 0 0.441224-0.481335 0.681891-0.722002a3.650123 3.650123 0 0 1 1.805006-1.28356l105.332132-36.541345a4.011125 4.011125 0 1 1 2.647342 7.540914l-104.28924 36.100122a8.022249 8.022249 0 0 1-0.842336 0.762113L577.361275 385.067962a4.011125 4.011125 0 0 1-2.607231 0.842336z" fill="#1E1E1E" p-id="7833"></path><path d="M680.768068 439.579145c-45.526264 14.359826-91.493752-0.521446-105.653022-33.252223a91.132751 91.132751 0 0 1-45.967488 12.033374c-27.275647 0-51.061616-10.990481-64.177994-27.35587a90.049747 90.049747 0 0 1-49.176388 13.918603c-33.332445 0-61.570763-16.4055-71.277684-39.068354a346.400721 346.400721 0 0 0-3.610012 49.617611c0 132.728113 75.128364 242.151592 172.197579 258.115869v0.681891h44.844373c99.114889-13.437267 176.489483-124.344863 176.489483-258.79776 0-4.011125 0-8.022249-0.240668-12.033373a105.89369 105.89369 0 0 1-53.428179 36.140232z" fill="#F36161" p-id="7834"></path><path d="M738.407928 399.026676a103.487015 103.487015 0 0 1-43.320145 32.730776c-16.044498 126.871871-86.158956 224.943868-172.83936 238.341024h40.111246c99.074778-13.477379 176.489483-124.344863 176.489483-258.83787-0.200556-4.091347-0.280779-8.182694-0.441224-12.23393zM580.449841 404.281249c-0.32089-0.681891-0.722002-1.363782-1.042892-2.085785a17.488503 17.488503 0 0 1-1.684672 0.922559z" fill="#E74239" p-id="7835"></path><path d="M420.08508 578.48439a4.011125 4.011125 0 0 1-3.008344-1.363782c-32.088997-36.902346-31.046104-68.790787-30.965882-70.114458a4.011125 4.011125 0 0 1 8.02225 0.361001c0 0.32089-0.96267 30.203768 28.960319 64.498884a4.011125 4.011125 0 0 1-0.361001 5.655685 4.011125 4.011125 0 0 1-2.647342 0.96267zM445.716166 606.762819a4.011125 4.011125 0 0 1-2.326452-0.762114c-11.632261-8.38325-12.594931-15.402718-12.675154-16.72639a4.011125 4.011125 0 0 1 8.022249-0.601668c0 0.32089 1.042892 4.81335 9.386032 10.830036a4.011125 4.011125 0 0 1-2.366564 7.260136z" fill="#FFFFFF" p-id="7836"></path><path d="M469.622469 488.755533a10.549258 10.509146 90 1 0 21.018292 0 10.549258 10.509146 90 1 0-21.018292 0Z" fill="#F09690" p-id="7837"></path><path d="M592.483215 562.439892m-5.013906 0a5.013906 5.013906 0 1 0 10.027812 0 5.013906 5.013906 0 1 0-10.027812 0Z" fill="#F09690" p-id="7838"></path><path d="M460.477104 552.612637m-4.85346 0a4.853461 4.853461 0 1 0 9.706921 0 4.853461 4.853461 0 1 0-9.706921 0Z" fill="#F09690" p-id="7839"></path><path d="M576.719495 502.995025m-3.730345 0a3.730346 3.730346 0 1 0 7.460691 0 3.730346 3.730346 0 1 0-7.460691 0Z" fill="#F09690" p-id="7840"></path><path d="M391.485761 447.12006m-3.890791 0a3.890791 3.890791 0 1 0 7.781582 0 3.890791 3.890791 0 1 0-7.781582 0Z" fill="#F09690" p-id="7841"></path><path d="M648.197736 482.056955m-3.85068 0a3.85068 3.85068 0 1 0 7.70136 0 3.85068 3.85068 0 1 0-7.70136 0Z" fill="#F09690" p-id="7842"></path><path d="M409.495711 642.140938a12.033374 12.033374 0 0 1-8.022249-3.008344 233.126562 233.126562 0 0 1-20.857848-20.897959 12.033374 12.033374 0 1 1 18.009949-16.044498 223.660308 223.660308 0 0 0 18.731952 18.772063 12.033374 12.033374 0 0 1-8.022249 21.058404zM364.73156 588.632536a12.033374 12.033374 0 0 1-10.228368-5.655686c-31.366994-50.339614-48.654941-113.95605-48.654941-179.136825a373.034588 373.034588 0 0 1 2.166007-40.111246 27.35587 27.35587 0 0 1 27.235536-24.387638h60.166869a12.033374 12.033374 0 1 1 0 24.066748h-60.166869a3.289122 3.289122 0 0 0-3.289122 2.928121 345.758941 345.758941 0 0 0-2.045673 37.544126c0 60.728426 16.044498 119.812292 45.044929 166.42156a12.033374 12.033374 0 0 1-4.011125 16.565945 12.033374 12.033374 0 0 1-6.217243 1.764895zM673.868933 901.6607h-198.510556a12.033374 12.033374 0 0 1 0-24.066748H673.868933a2.928121 2.928121 0 0 0 3.289123-3.008343 2.847898 2.847898 0 0 0-2.527009-3.52979 710.410279 710.410279 0 0 0-115.600611-12.033374 27.315759 27.315759 0 0 1-26.513534-27.35587v-144.400485a27.35587 27.35587 0 0 1 21.820518-26.794313c44.363038-9.626699 85.196287-40.111246 114.958831-86.199068 30.604881-47.251048 47.451604-107.698696 47.451604-170.232128a345.758941 345.758941 0 0 0-2.045673-37.544126 3.329233 3.329233 0 0 0-3.329234-2.928121h-203.283794a12.033374 12.033374 0 1 1 0-24.066748h203.243683a27.275647 27.275647 0 0 1 27.235536 24.387638 373.034588 373.034588 0 0 1 2.206119 40.111246c0 139.38658-76.211367 257.113087-181.342944 279.936386a3.52979 3.52979 0 0 0-2.888009 3.289122v144.400486a3.329233 3.329233 0 0 0 3.208899 3.289122 722.523875 722.523875 0 0 1 119.73207 12.675154 27.35587 27.35587 0 0 1-5.655686 54.150182z" fill="#1E1E1E" p-id="7843"></path><path d="M408.894042 901.6607H377.045713a27.35587 27.35587 0 0 1-5.495241-54.190294 703.952368 703.952368 0 0 1 110.907595-12.314152 3.289122 3.289122 0 0 0 3.168789-3.289123V685.902307a3.449567 3.449567 0 0 0-2.767676-3.249011 182.145168 182.145168 0 0 1-50.820949-21.138626 12.033374 12.033374 0 1 1 12.394375-20.617181 158.278977 158.278977 0 0 0 44.122371 18.370951 27.476204 27.476204 0 0 1 21.138626 26.633867v145.884602a27.275647 27.275647 0 0 1-26.232755 27.315759 689.512319 689.512319 0 0 0-107.056915 12.033373 2.968232 2.968232 0 0 0-2.647342 3.610013 2.88801 2.88801 0 0 0 3.289122 2.968232h31.768107a12.033374 12.033374 0 1 1 0 24.066747z" fill="#1E1E1E" p-id="7844"></path><path d="M331.158447 347.403502m-134.854009 0a134.854009 134.854009 0 1 0 269.708018 0 134.854009 134.854009 0 1 0-269.708018 0Z" fill="#F1CD3C" p-id="7845"></path><path d="M316.43762 216.600729a137.78213 137.78213 0 0 0-17.36817 1.163226 134.813898 134.813898 0 0 1 0 267.381566 137.78213 137.78213 0 0 0 17.36817 1.163226 134.854009 134.854009 0 0 0 0-269.708018z" fill="#E5AD73" p-id="7846"></path><path d="M307.051588 501.390575a149.37428 149.37428 0 0 1-121.898076-235.773904 12.033374 12.033374 0 1 1 19.614399 13.918603 125.307533 125.307533 0 1 0 102.283677-52.906734A126.069646 126.069646 0 0 0 268.745348 232.645227c-2.326452 0.762114-4.652905 1.60445-6.899134 2.486897A12.033374 12.033374 0 0 1 252.901406 212.589604c2.727565-1.042892 5.455129-2.005562 8.262917-2.928121A149.37428 149.37428 0 1 1 307.051588 501.390575z" fill="#1E1E1E" p-id="7847"></path><path d="M219.288182 258.356536a12.033374 12.033374 0 0 1-7.701359-21.258961 149.013279 149.013279 0 0 1 16.044498-11.792706A12.033374 12.033374 0 1 1 240.667476 245.681382a125.588311 125.588311 0 0 0-13.637823 9.907478 12.033374 12.033374 0 0 1-7.741471 2.767676zM307.0917 471.186807a113.033491 113.033491 0 0 1-43.239924-8.503584 1.965451 1.965451 0 0 1-1.083003-2.56712l10.549257-26.473422-11.792706 25.951976a2.005562 2.005562 0 0 1-2.647342 1.002781A113.514826 113.514826 0 0 1 224.622978 437.212582a114.91872 114.91872 0 0 1-24.548083-36.541345 2.085785 2.085785 0 0 1 1.083004-2.647343l26.152532-11.231148L200.55623 396.620001a2.005562 2.005562 0 0 1-2.56712-1.163226 113.915939 113.915939 0 0 1 0.882448-84.233617 2.005562 2.005562 0 0 1 2.607231-1.123115l26.473422 10.789925-25.951976-12.033374a2.045674 2.045674 0 0 1-1.002781-2.647342 113.835716 113.835716 0 0 1 60.166869-58.883309 2.005562 2.005562 0 0 1 2.607231 1.083004l11.27126 26.192643-10.027811-26.71409a2.005562 2.005562 0 0 1 1.163226-2.607231 114.196717 114.196717 0 0 1 84.233616 0.922559 1.965451 1.965451 0 0 1 1.083004 2.607231L340.945591 275.403815l11.792707-25.992087a2.005562 2.005562 0 0 1 2.647342-1.002781 114.076384 114.076384 0 0 1 58.883309 60.166869 2.045674 2.045674 0 0 1-1.083004 2.607231l-26.192643 11.27126 26.71409-10.027812a1.965451 1.965451 0 0 1 2.567119 1.123115 114.036272 114.036272 0 0 1-0.882447 84.233617 2.045674 2.045674 0 0 1-2.607231 1.083004l-26.473422-10.549258 25.951976 11.792706a1.965451 1.965451 0 0 1 1.002781 2.607231 113.835716 113.835716 0 0 1-60.166869 58.883309 1.965451 1.965451 0 0 1-2.607231-1.042892l-11.27126-26.232755 10.027811 26.754201a2.005562 2.005562 0 0 1-1.163226 2.56712 113.31427 113.31427 0 0 1-40.993693 7.540914z m-39.870579-11.471816a110.586705 110.586705 0 0 0 77.494927 0.842336l-34.014336-90.691527a2.045674 2.045674 0 0 1 0-1.60445 1.965451 1.965451 0 0 1 1.243448-1.002781h0.601669a2.045674 2.045674 0 0 1 2.486897 1.123115L353.299855 457.268205a110.305927 110.305927 0 0 0 55.35352-54.230405l-87.041404-39.549688a2.005562 2.005562 0 0 1-1.083004-1.203338 1.965451 1.965451 0 0 1 0-1.644561l0.32089-0.601669a2.045674 2.045674 0 0 1 2.527009-0.96267l88.766187 35.458342A109.944925 109.944925 0 0 0 413.145834 316.878844l-88.645854 33.252223a2.045674 2.045674 0 0 1-1.604449 0 1.92534 1.92534 0 0 1-1.002782-1.163227 1.524227 1.524227 0 0 1 0-0.401112 2.24623 2.24623 0 0 1 0.96267-2.847898l86.961182-37.34357a110.185593 110.185593 0 0 0-54.39085-55.473854l-39.108465 86.118845a2.005562 2.005562 0 0 1-2.607231 1.042893h-0.681891a2.045674 2.045674 0 0 1-1.163226-1.083004 1.92534 1.92534 0 0 1 0-1.564338L346.962278 249.49195a110.827373 110.827373 0 0 0-77.494927-0.842336l33.573113 89.448079a2.005562 2.005562 0 0 1-1.042893 2.527008l-0.601668 0.32089a1.885229 1.885229 0 0 1-1.60445 0 2.005562 2.005562 0 0 1-1.203338-1.083003L260.723099 251.938736a110.025148 110.025148 0 0 0-55.353519 54.190294l88.244741 40.111246a2.045674 2.045674 0 0 1 1.083004 2.486897v0.441224a2.166007 2.166007 0 0 1-1.042893 1.323671 2.166007 2.166007 0 0 1-1.644561 0l-89.929413-36.100122a109.944925 109.944925 0 0 0-0.802225 77.494928l91.293196-34.255004a1.92534 1.92534 0 0 1 2.527008 1.083003l0.32089 0.561558a1.92534 1.92534 0 0 1 0 1.564338 1.885229 1.885229 0 0 1-1.083004 1.123115L204.567355 400.711348a110.185593 110.185593 0 0 0 54.150182 55.393631l40.351913-88.84641a2.045674 2.045674 0 0 1 1.163227-1.083004 2.125896 2.125896 0 0 1 1.564338 0l0.401113 0.240668a2.446786 2.446786 0 0 1 1.203337 2.647342z" fill="#1E1E1E" p-id="7848"></path><path d="M307.0917 370.708136a16.72639 16.72639 0 1 1 16.686278-16.686279 16.72639 16.72639 0 0 1-16.686278 16.686279z m0-29.401543a12.715265 12.715265 0 1 0 12.675153 12.715264 12.715265 12.715265 0 0 0-12.675153-12.715264z" fill="#1E1E1E" p-id="7849"></path><path d="M219.288182 376.444044a4.011125 4.011125 0 0 1-3.730346-2.486897c-10.228368-24.909084 0-40.111246 0.401113-40.793137a4.011125 4.011125 0 0 1 6.618355 4.53257c-0.361001 0.521446-8.022249 12.594931 0.401113 33.212112a4.011125 4.011125 0 0 1-3.690235 5.535352z" fill="#FFFFFF" p-id="7850"></path></svg>