<?xml version="1.0" standalone="no"?><!DOCTYPE svg PUBLIC "-//W3C//DTD SVG 1.1//EN" "http://www.w3.org/Graphics/SVG/1.1/DTD/svg11.dtd"><svg t="1663415626947" class="icon" viewBox="0 0 1024 1024" version="1.1" xmlns="http://www.w3.org/2000/svg" p-id="24980" xmlns:xlink="http://www.w3.org/1999/xlink" width="200" height="200"><path d="M577.51445267 185.13472439c-9.19087652 0-16.49644549-7.30556897-16.49644412-16.4964441v-20.97405247c0-9.19087652 7.30556897-16.49644549 16.49644412-16.49644411s16.49644549 7.30556897 16.4964455 16.49644411v20.97405247c0 8.95521257-7.30556897 16.49644549-16.4964455 16.4964441z" fill="#F0874B" p-id="24981"></path><path d="M577.51445267 190.79064839c-12.2545025 0-22.1523695-9.89786702-22.15236814-22.1523681v-21.20971506c0-12.2545025 9.89786702-22.1523695 22.15236814-22.1523695s22.1523695 9.89786702 22.1523695 22.1523695v21.20971506c0 12.01883853-9.89786702 22.1523695-22.1523695 22.1523681z m0-54.20260464c-6.12725056 0-10.84052148 4.9489335-10.84052009 10.84052148v21.20971506c0 6.12725056 4.9489335 10.84052148 10.84052009 10.84052008s10.84052148-4.9489335 10.84052148-10.84052008v-21.20971506c0-6.12725056-4.9489335-10.84052148-10.84052148-10.84052148z" fill="#222222" p-id="24982"></path><path d="M337.60901012 411.37168485c33.22855357 0 59.85852865 26.86563906 59.85852865 59.85853003 0-33.22855357 26.86563906-59.85852865 59.85852865-59.85853003s59.85852865 26.86563906 59.85853004 59.85853003c0-33.22855357 26.86563906-59.85852865 59.85852867-59.85853003s59.85852865 26.86563906 59.85852864 59.85853003c0-33.22855357 26.86563906-59.85852865 59.85853005-59.85853003s59.85852865 26.86563906 59.85852866 59.85853003c0-33.22855357 26.86563906-59.85852865 59.85852866-59.85853003 33.22855357 0 59.85852865 26.86563906 59.85853004 59.85853003 0-165.67144128-134.32819526-299.76397259-299.7639726-299.7639726s-299.76397259 134.32819526-299.76397259 299.7639726c0.94265446-32.99288962 27.80829353-59.85852865 60.80118313-59.85853003z" fill="#FFFFFF" p-id="24983"></path><path d="M877.27842526 476.88613889c-3.06362596 0-5.65592402-2.59229804-5.65592401-5.65592401 0-29.92926501-24.27334099-54.20260465-54.20260464-54.20260603s-54.20260465 24.27334099-54.20260465 54.20260603c0 3.06362596-2.59229804 5.65592402-5.65592401 5.65592401s-5.65592402-2.59229804-5.65592401-5.65592401c0-29.92926501-24.27334099-54.20260465-54.20260602-54.20260603s-54.20260465 24.27334099-54.20260466 54.20260603c0 3.06362596-2.59229804 5.65592402-5.65592402 5.65592401s-5.65592402-2.59229804-5.65592399-5.65592401c0-29.92926501-24.27334099-54.20260465-54.20260465-54.20260603s-54.20260465 24.27334099-54.20260604 54.20260603c0 3.06362596-2.59229804 5.65592402-5.655924 5.65592401s-5.65592402-2.59229804-5.65592402-5.65592401c0-29.92926501-24.27334099-54.20260465-54.20260465-54.20260603s-54.20260465 24.27334099-54.20260464 54.20260603c0 3.06362596-2.59229804 5.65592402-5.65592401 5.65592401s-5.65592402-2.59229804-5.65592401-5.65592401c0-29.92926501-24.27334099-54.20260465-54.20260603-54.20260603s-54.20260465 24.27334099-54.20260464 54.20260603c0 3.06362596-2.59229804 5.65592402-5.65592402 5.65592401s-5.65592402-2.59229804-5.65592401-5.65592401c0-168.4994033 136.9204933-305.41989661 305.41989661-305.4198966s305.41989661 136.9204933 305.4198966 305.4198966c-0.94265446 3.29928854-3.5349525 5.65592402-6.59857848 5.65592401z m-299.76397259-71.17037806c26.62997509 0 49.72499905 16.02511757 59.85853004 38.88447758 10.13353098-22.85936001 33.22855357-38.88447758 59.85852865-38.88447758 26.62997509 0 49.72499905 16.02511757 59.85852866 38.88447758 10.13353098-22.85936001 33.22855357-38.88447758 59.85853005-38.88447758 20.97405109 0 39.59146809 9.89786702 51.61030659 24.98033151-19.79573404-143.04774524-142.81208129-253.57392605-291.28008656-253.57392604s-271.48435253 110.52618219-291.28008659 253.57392604c12.01883853-15.31812707 30.63625552-24.98033151 51.61030661-24.98033151 26.62997509 0 49.72499905 16.02511757 59.85852865 38.88447758 10.13353098-22.85936001 33.22855357-38.88447758 59.85852865-38.88447758 26.62997509 0 49.72499905 16.02511757 59.85853004 38.88447758 10.60485751-22.85936001 33.69988011-38.88447758 60.32985521-38.88447758z" fill="#222222" p-id="24984"></path><path d="M378.37879523 359.05438773c26.86563906 0 48.78234459 17.91042649 48.7823446 40.062796 0-22.1523695 21.91670555-40.06279462 48.7823446-40.062796s48.78234459 17.91042649 48.78234459 40.062796c0-22.1523695 21.91670555-40.06279462 48.7823446-40.062796s48.78234459 17.91042649 48.7823446 40.062796c0-22.1523695 21.91670555-40.06279462 48.7823446-40.062796 26.86563906 0 48.78234459 17.91042649 48.78234459 40.062796 0-22.1523695 21.91670555-40.06279462 48.7823446-40.062796 26.86563906 0 51.37464265 5.65592402 58.68021161 26.39431252-31.10758207-90.96611072-111.46883526-186.88115633-246.03269448-186.88115634s-236.84181797 104.39893025-251.21729196 186.4098298c3.29928854-21.91670555 21.44537901-25.92298459 48.31101805-25.92298598z" fill="#FFF4C7" p-id="24985"></path><path d="M398.17452927 455.91208643c-3.06362596 0-5.65592402-2.59229804-5.655924-5.65592401 0-63.15781858 16.96777203-123.01634725 49.25367114-173.21267284 32.2858991-50.43198957 78.71160962-88.60947664 134.09253268-110.52618081 2.82796201-1.17831705 6.12725056 0.23566397 7.3055676 3.0636246s-0.23566397 6.12725056-3.06362459 7.30556898c-53.02428761 21.20971504-97.56468919 57.97322111-128.67227126 106.28423916-31.10758207 48.31101805-47.36836359 106.0485752-47.36836359 167.08542091-0.23566397 3.06362596-2.82796201 5.65592402-5.89158798 5.65592401z" fill="#222222" p-id="24986"></path><path d="M519.06990501 463.45331937c-2.82796201 0-5.18459746-1.88530755-5.655924-4.71327094-18.14608908-113.11848021 4.00627904-218.22440097 60.56551915-288.45212456 1.88530755-2.35663547 5.42026005-2.82796201 8.01255948-0.94265309 2.35663547 1.88530755 2.82796201 5.42026005 0.94265445 8.01255811-54.67393258 67.87108813-75.88364762 169.67772034-58.20888507 279.73257596 0.47132654 3.06362596-1.64964496 5.89158797-4.71326953 6.36291452h-0.94265448z" fill="#222222" p-id="24987"></path><path d="M635.95900171 463.45331937h-0.94265446c-3.06362596-0.47132654-5.18459746-3.29928854-4.71326955-6.36291452 17.67476253-110.05485426-3.5349525-211.86148646-58.20888508-279.73257596-1.88530755-2.35663547-1.64964496-5.89158797 0.94265446-8.01255811 2.35663547-1.88530755 5.89158797-1.64964496 8.01255809 0.94265309 56.55924012 70.22772359 78.71160962 175.33364434 60.56552055 288.45212456-0.7069905 2.59229804-3.06362596 4.71326955-5.65592401 4.71327094z" fill="#222222" p-id="24988"></path><path d="M758.73968498 455.91208643c-3.06362596 0-5.65592402-2.59229804-5.655924-5.65592401 0-61.03684708-16.49644549-118.77440423-47.36836359-167.08542091-31.10758207-48.31101805-75.64798365-85.07452414-128.67227126-106.28423916-2.82796201-1.17831705-4.24194301-4.47760697-3.06362597-7.30556898 1.17831705-2.82796201 4.47760697-4.24194301 7.30556898-3.0636246 55.14525911 22.1523695 101.57096825 60.32985658 134.09253131 110.52618081 32.2858991 50.1963256 49.25367113 110.05485426 49.25367251 173.21267284-0.23566397 3.06362596-2.82796201 5.65592402-5.89158798 5.65592401z" fill="#222222" p-id="24989"></path><path d="M520.24822206 898.72380427c-35.58518903 0-64.33613563-28.98661055-64.33613563-64.33613563v-25.68732203c0-3.06362596 2.59229804-5.65592402 5.655924-5.655924s5.65592402 2.59229804 5.65592402 5.655924v25.68732203c0 29.22227452 23.80201308 53.02428761 53.02428761 53.02428761S573.27250965 863.13861524 573.27250965 833.44501418v-419.48102991c0-3.06362596 2.59229804-5.65592402 5.65592402-5.65592401s5.65592402 2.59229804 5.65592402 5.65592401v419.48102991c0 36.05651557-28.7509466 65.2787901-64.33613563 65.27879009z" fill="#222222" p-id="24990"></path><path d="M636.19466429 546.64253457h81.77523558s-7.30556897 186.40982841-8.24822344 226.47262441c-0.94265446 45.48305605 41.94810354 66.45710714 96.1507082 71.64170322 7.06990501 0.7069905 12.2545025 6.59857847 12.25450247 13.66848349 0 7.54123156-6.12725056 13.66848348-13.66848347 13.66848348h-145.40437934c-8.01255949 0-14.84680053-6.12725056-15.55379103-14.13981002-1.17831705-9.89786702-0.7069905-24.50900359 5.89158798-43.12642059 1.41398101-4.00627904 2.1209715-8.01255949 1.88530754-12.25450249l-15.08246449-255.9305615z" fill="#FFF4C7" p-id="24991"></path><path d="M804.45840363 877.98541575h-145.40437934c-10.84052148 0-20.03139801-8.24822206-21.20971505-19.08874353-1.17831705-9.66220306-0.94265446-25.45165805 6.12725056-45.48305466 1.17831705-3.29928854 1.64964496-6.83424105 1.413981-10.13353099l-15.0824631-256.16622546c0-1.64964496 0.47132654-3.06362596 1.41398099-4.24194301 1.17831705-1.17831705 2.59229804-1.88530755 4.00627906-1.88530755h81.7752342c1.64964496 0 3.06362596 0.7069905 4.00628042 1.64964497 1.17831705 1.17831705 1.64964496 2.59229804 1.6496436 4.24194302 0 1.88530755-7.30556897 186.88115633-8.24822206 226.47262302-1.17831705 49.48933509 56.55924012 62.68649067 90.96611072 65.98578058 9.89786702 0.94265446 17.43909857 9.19087652 17.43909995 19.3244075 0.7069905 10.60485751-8.01255949 19.3244075-18.85308095 19.32440611z m-162.13648741-325.68695717l14.61113656 250.27463749c0.23566397 4.9489335-0.47132654 9.66220306-2.12097149 14.375474-6.36291451 18.14608908-6.59857847 32.05023652-5.65592402 40.53412116 0.47132654 5.18459746 4.9489335 8.95521257 10.13353098 8.95521393h145.40437932c4.47760697 0 8.01255949-3.5349525 8.01255949-8.01255947 0-4.24194301-3.06362596-7.54123156-7.30556898-8.01255947-66.22144318-6.36291451-102.27795873-33.93554407-101.33530565-77.5332912 0.7069905-35.58518903 6.83424105-188.76646387 8.01255947-220.8167004h-69.75639568z" fill="#222222" p-id="24992"></path><path d="M715.84892836 573.97950016h-75.64798366" fill="#FFFFFF" p-id="24993"></path><path d="M715.84892836 579.63542416h-75.64798366c-3.06362596 0-5.65592402-2.59229804-5.65592399-5.655924s2.59229804-5.65592402 5.65592399-5.65592401h75.64798366c3.06362596 0 5.65592402 2.59229804 5.65592401 5.65592401s-2.35663547 5.65592402-5.65592401 5.655924z" fill="#222222" p-id="24994"></path><path d="M657.6400433 872.32949175h149.88198629v17.9104265h-149.88198629z" fill="#FFDE52" p-id="24995"></path><path d="M807.52202959 895.89584226h-149.88198629c-3.06362596 0-5.65592402-2.59229804-5.65592403-5.65592401v-17.9104265c0-3.06362596 2.59229804-5.65592402 5.65592403-5.65592402h149.88198629c3.06362596 0 5.65592402 2.59229804 5.65592401 5.65592402v17.9104265c0 3.06362596-2.59229804 5.65592402-5.65592401 5.65592401z m-144.2260623-11.31184803H801.86610557v-6.59857848h-138.57013828v6.59857848z" fill="#222222" p-id="24996"></path><path d="M679.08542229 546.64253457h81.7752342s-7.30556897 186.40982841-8.24822206 226.47262441c-0.94265446 45.48305605 41.94810354 66.45710714 96.1507082 71.64170322 7.06990501 0.7069905 12.2545025 6.59857847 12.2545011 13.66848349 0 7.54123156-6.12725056 13.66848348-13.66848211 13.66848348h-145.4043807c-8.01255949 0-14.84680053-6.12725056-15.55379104-14.13981002-1.17831705-9.89786702-0.7069905-24.50900359 5.89158799-43.12642059 1.41398101-4.00627904 2.1209715-8.01255949 1.88530752-12.25450249l-15.0824631-255.9305615z" fill="#FFF4C7" p-id="24997"></path><path d="M847.34916162 877.98541575h-145.4043807c-10.84052148 0-20.03139801-8.24822206-21.20971504-19.08874353-1.17831705-9.66220306-0.94265446-25.45165805 6.12725192-45.48305466 1.17831705-3.29928854 1.64964496-6.83424105 1.41398101-10.13353099l-15.08246448-256.16622546c0-1.64964496 0.47132654-3.06362596 1.41398099-4.24194301 1.17831705-1.17831705 2.59229804-1.88530755 4.00627906-1.88530755h81.77523557c1.64964496 0 3.06362596 0.7069905 4.00627904 1.64964497 1.17831705 1.17831705 1.64964496 2.59229804 1.64964497 4.24194302 0 1.88530755-7.30556897 186.88115633-8.24822343 226.47262302-1.17831705 49.48933509 56.55924012 62.68649067 90.9661121 65.98578058 9.89786702 0.94265446 17.43909857 9.19087652 17.43909856 19.3244075 0.47132654 10.60485751-8.24822206 19.3244075-18.85307957 19.32440611z m-162.37215273-325.68695717l14.61113795 250.27463749c0.23566397 4.9489335-0.47132654 9.66220306-2.12097152 14.375474-6.36291451 18.14608908-6.59857847 32.05023652-5.65592399 40.53412116 0.47132654 5.18459746 4.9489335 8.95521257 10.13352959 8.95521393h145.4043807c4.47760697 0 8.01255949-3.5349525 8.01255809-8.01255947 0-4.24194301-3.06362596-7.54123156-7.30556759-8.01255947-66.22144318-6.36291451-102.27795873-33.93554407-101.33530565-77.5332912 0.7069905-35.58518903 6.83424105-188.76646387 8.01255946-220.8167004h-69.75639704z" fill="#222222" p-id="24998"></path><path d="M758.73968498 573.97950016h-75.64798364" fill="#FFFFFF" p-id="24999"></path><path d="M758.73968498 579.63542416h-75.64798364c-3.06362596 0-5.65592402-2.59229804-5.65592401-5.655924s2.59229804-5.65592402 5.65592401-5.65592401h75.64798364c3.06362596 0 5.65592402 2.59229804 5.65592401 5.65592401s-2.59229804 5.65592402-5.65592401 5.655924z" fill="#222222" p-id="25000"></path><path d="M696.9958474 872.32949175h149.8819863v17.9104265h-149.8819863z" fill="#FFDE52" p-id="25001"></path><path d="M846.8778337 895.89584226h-149.8819863c-3.06362596 0-5.65592402-2.59229804-5.655924-5.65592401v-17.9104265c0-3.06362596 2.59229804-5.65592402 5.655924-5.65592402h149.8819863c3.06362596 0 5.65592402 2.59229804 5.65592402 5.65592402v17.9104265c0 3.06362596-2.59229804 5.65592402-5.65592402 5.65592401z m-144.22606229-11.31184803h138.57013828v-6.59857848h-138.57013828v6.59857848z" fill="#222222" p-id="25002"></path><path d="M530.85307957 819.06954157c0-39.59146809-31.10758207-71.87736718-70.22772222-73.99834008H158.03342277c-20.26706059 0-36.99917003 16.73210807-36.99917004 36.99917004s16.73210807 36.99917003 36.99917004 36.99917004c-20.26706059 0-36.99917003 16.73210807-36.99917004 36.99916865s16.73210807 36.99917003 36.99917004 36.99917004h302.59193458c39.12014154-1.88530755 70.22772359-34.4068706 70.22772222-73.99833869z" fill="#FFFFFF" p-id="25003"></path><path d="M460.62535735 898.72380427H158.03342277c-23.56635051 0-42.65509405-19.08874354-42.65509406-42.65509405 0-15.789455 8.71954998-29.69360106 21.445379-36.99916865-12.72582902-7.30556897-21.44537901-21.20971504-21.445379-36.99917004 0-23.56635051 19.08874354-42.65509405 42.65509406-42.65509404h302.59193458c0.47132654 0 0.94265446 0 1.41398101 0.23566395 41.94810354 2.59229804 74.4696666 37.47049658 74.46966523 79.41860013 0 42.18376612-32.75722702 76.82630069-74.46966523 79.41859873-0.47132654 0.23566397-0.94265446 0.23566397-1.41398101 0.23566397z m-302.59193458-73.99833869c-17.20343599 0-31.34324603 14.13981003-31.34324603 31.34324464s14.13981003 31.34324603 31.34324603 31.34324603h302.35627064c36.29217952-1.88530755 64.80746218-31.81457257 64.80746215-68.34241468s-28.51528401-66.45710714-64.80746215-68.34241606H158.03342277c-17.20343599 0-31.34324603 14.13981003-31.34324603 31.34324602s14.13981003 31.34324603 31.34324603 31.34324603c3.06362596 0 5.65592402 2.59229804 5.655924 5.65592401s-2.59229804 5.65592402-5.655924 5.65592401z" fill="#222222" p-id="25004"></path><path d="M488.43364949 817.65556057c0-27.57262956-24.74466755-50.1963256-55.61658565-51.61030661H192.67595731c-16.26078154 0-29.45793709 11.54751198-29.45793845 25.9229846 0 14.13981003 13.19715556 25.92298459 29.45793845 25.92298459-16.26078154 0-29.45793709 11.54751198-29.45793845 25.92298597 0 14.13981003 13.19715556 25.92298459 29.45793845 25.92298459h240.14110653c30.8719181-1.88530755 55.61658565-24.27334099 55.61658565-52.08163314z" fill="#F0874B" p-id="25005"></path><path d="M464.39597245 824.72546558H158.97607584c-3.06362596 0-5.65592402-2.59229804-5.65592401-5.65592401s2.59229804-5.65592402 5.65592401-5.65592401h305.41989661c3.06362596 0 5.65592402 2.59229804 5.65592401 5.65592401s-2.59229804 5.65592402-5.65592401 5.65592401z" fill="#222222" p-id="25006"></path><path d="M221.66256789 745.07120149h56.79490269v73.99834008h-56.79490269z" fill="#FFFFFF" p-id="25007"></path><path d="M278.45747058 824.72546558h-56.79490269c-3.06362596 0-5.65592402-2.59229804-5.65592402-5.65592401v-73.99834008c0-3.06362596 2.59229804-5.65592402 5.65592402-5.655924h56.79490269c3.06362596 0 5.65592402 2.59229804 5.65592401 5.655924v73.99834008c0 3.29928854-2.59229804 5.65592402-5.65592401 5.65592401z m-51.37464263-11.31184802h45.71871862v-62.68649205h-45.71871862v62.68649205z" fill="#222222" p-id="25008"></path><path d="M221.66256789 819.06954157h56.79490269v73.99833869h-56.79490269z" fill="#FFFFFF" p-id="25009"></path><path d="M278.45747058 898.72380427h-56.79490269c-3.06362596 0-5.65592402-2.59229804-5.65592402-5.65592401v-73.99833869c0-3.06362596 2.59229804-5.65592402 5.65592402-5.65592401h56.79490269c3.06362596 0 5.65592402 2.59229804 5.65592401 5.65592401v73.99833869c0 3.29928854-2.59229804 5.65592402-5.65592401 5.65592401z m-51.37464263-11.31184802h45.71871862v-62.68649067h-45.71871862v62.68649067z" fill="#222222" p-id="25010"></path><path d="M325.11884367 589.76895517v92.61575566h-49.48933509c-17.20343599 0-31.81457257 13.43281952-32.28589912 30.63625553-0.47132654 17.91042649 13.90414608 32.52156306 31.5789086 32.52156306h81.77523559c17.43909857 0 31.57890861-14.13981003 31.5789086-31.57890999v-0.47132653V589.76895517h-63.15781858z" fill="#FFFFFF" p-id="25011"></path><path d="M356.69775365 751.19845343h-81.77523559c-10.13353098 0-19.56007008-4.00627904-26.62997508-11.31184802-7.06990501-7.30556897-10.84052148-16.73210807-10.60485752-26.86563905 0.47132654-20.03139801 17.43909857-36.05651557 37.70616052-36.05651557h43.83341109v-87.19549562c0-3.06362596 2.59229804-5.65592402 5.65592402-5.65592402h63.1578172c3.06362596 0 5.65592402 2.59229804 5.65592401 5.65592402v124.19466426c0.23566397 20.50272455-16.49644549 37.23483261-36.99916865 37.234834z m-81.06824507-63.15781858c-14.13981003 0-26.15864854 11.31184801-26.62997511 25.21599408-0.23566397 7.06990501 2.35663547 13.66848348 7.30556898 18.85308096 4.9489335 4.9489335 11.54751198 7.77689552 18.61741561 7.77689552h81.77523559c14.37547399 0 25.92298459-11.54751198 25.92298459-25.92298598v-0.47132653-118.06741374h-51.84597056v86.95983167c0 3.06362596-2.59229804 5.65592402-5.65592401 5.65592402h-49.48933509z" fill="#222222" p-id="25012"></path><path d="M340.20130816 691.57558736c0 3.29928854-2.59229804 6.12725056-6.12725056 6.12725056h-47.60402755c-9.66220306 0-17.91042649 7.30556897-18.14608907 16.96777202-0.23566397 9.89786702 7.54123156 17.91042649 17.43909857 17.91042649h71.87736718c9.66220306 0 17.43909857-7.77689552 17.43909997-17.43909856v-0.23566396V642.79324276h-34.64253457c-0.23566397-0.23566397-0.23566397 48.78234459-0.23566397 48.7823446z" fill="#FFDE52" p-id="25013"></path><path d="M318.28460261 573.03684708h77.06196466v18.85307958h-77.06196466z" fill="#F0874B" p-id="25014"></path><path d="M395.11090331 597.54585068h-77.06196465c-3.06362596 0-5.65592402-2.59229804-5.65592403-5.65592402v-18.85307958c0-3.06362596 2.59229804-5.65592402 5.65592403-5.65592402h77.06196465c3.06362596 0 5.65592402 2.59229804 5.65592401 5.65592402v18.85307958c0 3.06362596-2.35663547 5.65592402-5.65592401 5.65592402z m-71.17037669-11.31184803H389.45497929v-7.54123156h-65.75011662v7.54123156z" fill="#222222" p-id="25015"></path><path d="M388.27666225 624.41148973h-63.15781858c-3.06362596 0-5.65592402-2.59229804-5.65592401-5.65592402s2.59229804-5.65592402 5.65592401-5.655924h63.15781858c3.06362596 0 5.65592402 2.59229804 5.65592402 5.655924s-2.59229804 5.65592402-5.65592402 5.65592402z" fill="#222222" p-id="25016"></path><path d="M282.93507755 589.76895517v92.61575566h-49.4893351c-17.20343599 0-31.81457257 13.43281952-32.28589911 30.63625553-0.47132654 17.91042649 13.90414608 32.52156306 31.57890861 32.52156306h81.7752342c17.43909857 0 31.57890861-14.13981003 31.57890998-31.57890999v-0.47132653V589.76895517h-63.15781858z" fill="#FFFFFF" p-id="25017"></path><path d="M314.51398615 751.19845343h-81.7752342c-10.13353098 0-19.56007008-4.00627904-26.6299751-11.31184802-7.06990501-7.30556897-10.84052148-16.73210807-10.60485751-26.86563905 0.47132654-20.03139801 17.43909857-36.05651557 37.70615916-36.05651557h43.83341108v-87.19549562c0-3.06362596 2.59229804-5.65592402 5.655924-5.65592402h63.1578186c3.06362596 0 5.65592402 2.59229804 5.65592399 5.65592402v124.19466426c0.23566397 20.50272455-16.49644549 37.23483261-36.99917002 37.234834z m-81.0682437-63.15781858c-14.13981003 0-26.15864854 11.31184801-26.62997509 25.21599408-0.23566397 7.06990501 2.35663547 13.66848348 7.30556759 18.85308096 4.9489335 4.9489335 11.54751198 7.77689552 18.617417 7.77689552h81.7752342c14.37547399 0 25.92298459-11.54751198 25.92298598-25.92298598v-0.47132653-118.06741374h-51.84597056v86.95983167c0 3.06362596-2.59229804 5.65592402-5.65592402 5.65592402h-49.4893351z" fill="#222222" p-id="25018"></path><path d="M297.78187808 691.57558736c0 3.29928854-2.59229804 6.12725056-6.12725055 6.12725056h-47.60402756c-9.66220306 0-17.91042649 7.30556897-18.14608907 16.96777202-0.23566397 9.89786702 7.54123156 17.91042649 17.43909856 17.91042649h71.87736719c9.66220306 0 17.43909857-7.77689552 17.43909995-17.43909856v-0.23566396V642.79324276h-34.64253456c-0.23566397-0.23566397-0.23566397 48.78234459-0.23566396 48.7823446z" fill="#FFDE52" p-id="25019"></path><path d="M276.1008365 573.03684708h77.06196464v18.85307958h-77.06196464z" fill="#F0874B" p-id="25020"></path><path d="M352.92713718 597.54585068h-77.06196465c-3.06362596 0-5.65592402-2.59229804-5.65592401-5.65592402v-18.85307958c0-3.06362596 2.59229804-5.65592402 5.65592401-5.65592402h77.06196465c3.06362596 0 5.65592402 2.59229804 5.65592401 5.65592402v18.85307958c0 3.06362596-2.35663547 5.65592402-5.65592401 5.65592402z m-71.17037668-11.31184803h65.75011663v-7.54123156h-65.75011663v7.54123156z" fill="#222222" p-id="25021"></path><path d="M346.09289613 624.41148973h-63.15781858c-3.06362596 0-5.65592402-2.59229804-5.65592402-5.65592402s2.59229804-5.65592402 5.65592402-5.655924h63.15781858c3.06362596 0 5.65592402 2.59229804 5.65592401 5.655924s-2.59229804 5.65592402-5.65592401 5.65592402z" fill="#222222" p-id="25022"></path><path d="M65.65332965 435.88068981h-12.49016505c-3.06362596 0-5.65592402-2.59229804-5.65592401-5.65592402s2.59229804-5.65592402 5.65592401-5.655924h12.49016505c3.06362596 0 5.65592402 2.59229804 5.65592401 5.655924s-2.59229804 5.65592402-5.65592401 5.65592402z" fill="#222222" p-id="25023"></path><path d="M62.35404112 452.14147135l8.71954996-8.95521394" fill="#FFFFFF" p-id="25024"></path><path d="M62.35404112 457.79739535c-1.41398101 0-2.82796201-0.47132654-4.00627906-1.64964495-2.1209715-2.1209715-2.1209715-5.89158797 0-8.01255949l8.7195486-8.7195486c2.1209715-2.1209715 5.89158797-2.1209715 8.01255947 0 2.1209715 2.1209715 2.1209715 5.89158797 0 8.01255811l-8.71954997 8.71954998c-1.17831705 0.94265446-2.59229804 1.64964496-4.00627904 1.64964495z" fill="#222222" p-id="25025"></path><path d="M84.27074665 461.09668389v-12.25450247" fill="#FFFFFF" p-id="25026"></path><path d="M84.27074665 466.75260791c-3.06362596 0-5.65592402-2.59229804-5.655924-5.65592402v-12.49016506c0-3.06362596 2.59229804-5.65592402 5.655924-5.655924s5.65592402 2.59229804 5.65592402 5.655924v12.49016506c0 3.29928854-2.59229804 5.65592402-5.65592402 5.65592402z" fill="#222222" p-id="25027"></path><path d="M106.1874522 452.14147135l-8.71954997-8.95521394" fill="#FFFFFF" p-id="25028"></path><path d="M106.1874522 457.79739535c-1.41398101 0-2.82796201-0.47132654-4.00627906-1.64964495l-8.71954996-8.71954998c-2.1209715-2.1209715-2.1209715-5.89158797 0-8.01255811 2.1209715-2.1209715 5.89158797-2.1209715 8.01255947 0l8.71954859 8.7195486c2.1209715 2.1209715 2.1209715 5.89158797 0 8.01255949-1.17831705 0.94265446-2.59229804 1.64964496-4.00627904 1.64964495z" fill="#222222" p-id="25029"></path><path d="M115.37832871 430.22476579h-12.49016506" fill="#FFFFFF" p-id="25030"></path><path d="M115.37832871 435.88068981h-12.49016506c-3.06362596 0-5.65592402-2.59229804-5.65592402-5.65592402s2.59229804-5.65592402 5.65592402-5.655924h12.49016506c3.06362596 0 5.65592402 2.59229804 5.65592402 5.655924s-2.59229804 5.65592402-5.65592402 5.65592402z" fill="#222222" p-id="25031"></path><path d="M106.1874522 408.07239629l-8.71954997 8.95521256" fill="#FFFFFF" p-id="25032"></path><path d="M97.46790223 422.68353286c-1.41398101 0-2.82796201-0.47132654-4.00627905-1.64964358-2.1209715-2.1209715-2.1209715-5.89158797 0-8.01255948l8.71954996-8.71954998c2.1209715-2.1209715 5.89158797-2.1209715 8.0125581 0s2.1209715 5.89158797 0 8.01255949l-8.71954859 8.71954997c-1.17831705 0.94265446-2.59229804 1.64964496-4.00628042 1.64964358z" fill="#222222" p-id="25033"></path><path d="M84.27074665 399.11718373v12.49016507" fill="#FFFFFF" p-id="25034"></path><path d="M84.27074665 417.02760885c-3.06362596 0-5.65592402-2.59229804-5.655924-5.655924V398.88151979c0-3.06362596 2.59229804-5.65592402 5.655924-5.65592402s5.65592402 2.59229804 5.65592402 5.65592402v12.49016506c0 3.29928854-2.59229804 5.65592402-5.65592402 5.655924z" fill="#222222" p-id="25035"></path><path d="M62.35404112 408.07239629l8.71954996 8.95521256" fill="#FFFFFF" p-id="25036"></path><path d="M71.07359108 422.68353286c-1.41398101 0-2.82796201-0.47132654-4.00628042-1.64964358l-8.7195486-8.71954997c-2.1209715-2.1209715-2.1209715-5.89158797 0-8.01255949s5.89158797-2.1209715 8.0125581 0l8.71954997 8.71954998c2.1209715 2.1209715 2.1209715 5.89158797 0 8.01255948-1.17831705 0.94265446-2.59229804 1.64964496-4.00627905 1.64964358z" fill="#222222" p-id="25037"></path><path d="M177.35782889 260.78270804h-45.24739209c-3.06362596 0-5.65592402-2.59229804-5.65592402-5.65592402s2.59229804-5.65592402 5.65592402-5.65592401H177.35782889c3.06362596 0 5.65592402 2.59229804 5.655924 5.65592401s-2.59229804 5.65592402-5.655924 5.65592402z" fill="#222222" p-id="25038"></path><path d="M154.73413284 283.40640409c-3.06362596 0-5.65592402-2.59229804-5.65592402-5.655924v-45.24739211c0-3.06362596 2.59229804-5.65592402 5.65592402-5.655924s5.65592402 2.59229804 5.65592399 5.655924v45.24739211c0 3.06362596-2.35663547 5.65592402-5.65592399 5.655924z" fill="#222222" p-id="25039"></path><path d="M949.62712035 530.38175303m-21.20971503 0a21.20971504 21.20971504 0 1 0 42.41943008 0 21.20971504 21.20971504 0 1 0-42.41943008 0Z" fill="#FF9060" p-id="25040"></path><path d="M949.62712035 557.24739209c-14.84680053 0-26.86563906-12.01883853-26.86563904-26.86563906s12.01883853-26.86563906 26.86563904-26.86563906 26.86563906 12.01883853 26.86563906 26.86563906-12.01883853 26.86563906-26.86563906 26.86563906z m0-42.41943008c-8.48388603 0-15.55379103 7.06990501-15.55379102 15.55379102s7.06990501 15.55379103 15.55379102 15.55379104 15.55379103-7.06990501 15.55379105-15.55379104-7.06990501-15.55379103-15.55379105-15.55379102z" fill="#222222" p-id="25041"></path></svg>