<?xml version="1.0" standalone="no"?><!DOCTYPE svg PUBLIC "-//W3C//DTD SVG 1.1//EN" "http://www.w3.org/Graphics/SVG/1.1/DTD/svg11.dtd"><svg t="1662987436170" class="icon" viewBox="0 0 1024 1024" version="1.1" xmlns="http://www.w3.org/2000/svg" p-id="3811" xmlns:xlink="http://www.w3.org/1999/xlink" width="200" height="200"><path d="M5.1 832.5h253.5c2.8 0 5.1-2.3 5.1-5.1s-2.3-5.1-5.1-5.1H5.1c-2.8 0-5.1 2.3-5.1 5.1s2.3 5.1 5.1 5.1z m314.3 0h55.8c2.8 0 5.1-2.3 5.1-5.1s-2.3-5.1-5.1-5.1h-55.8c-2.8 0-5.1 2.3-5.1 5.1s2.3 5.1 5.1 5.1z m106.4 0h253.5c2.8 0 5.1-2.3 5.1-5.1s-2.3-5.1-5.1-5.1H425.8c-2.8 0-5.1 2.3-5.1 5.1s2.3 5.1 5.1 5.1z m314.3 0h55.8c2.8 0 5.1-2.3 5.1-5.1s-2.3-5.1-5.1-5.1h-55.8c-2.8 0-5.1 2.3-5.1 5.1s2.3 5.1 5.1 5.1z m106.5 0H1019c2.8 0 5.1-2.3 5.1-5.1s-2.3-5.1-5.1-5.1H846.6c-2.8 0-5.1 2.3-5.1 5.1s2.3 5.1 5.1 5.1z" fill="#050531" p-id="3812"></path><path d="M765 308.3c68.3 68.3 68.3 179 0 247.3L648.5 672.1 401.2 424.8l116.5-116.5c68.3-68.3 179-68.3 247.3 0z" fill="#FF7E33" p-id="3813"></path><path d="M623.2 646.8l25.3 25.3L765 555.6c68.3-68.3 68.3-179 0-247.3-40.6-40.6-96.2-57.1-149-49.4 36 5.2 70.6 21.7 98.3 49.4 68.3 68.3 68.3 179 0 247.3l-91.1 91.2z" fill="#CA5D1E" p-id="3814"></path><path d="M365.3 460.6l247.3 247.3-116.4 116.5c-68.3 68.3-179 68.3-247.3 0-68.3-68.3-68.3-179 0-247.3l116.4-116.5z" fill="#3C96FF" p-id="3815"></path><path d="M476.3 571.6l136.3 136.3-116.4 116.5c-40.6 40.6-96.2 57.1-149 49.4 36-5.2 70.6-21.7 98.3-49.4l141.8-141.8-111-111z" fill="#1F73D4" p-id="3816"></path><path d="M710.693 311.829c-1.98-1.98-1.98-5.233 0-7.213 1.98-1.98 5.233-1.98 7.213 0 64.63 64.63 70.357 167.231 14.283 238.437-1.767 2.192-4.95 2.545-7.07 0.848-2.193-1.768-2.546-4.95-0.85-7.07 52.892-67.176 47.448-163.979-13.576-225.002z m10.465 228.82c1.768-2.193 5.02-2.475 7.142-0.637 2.192 1.768 2.475 5.02 0.637 7.142-1.061 1.343-2.263 2.687-3.394 3.96-1.839 2.121-5.092 2.262-7.213 0.424-2.121-1.839-2.263-5.091-0.424-7.213 1.06-1.202 2.121-2.404 3.252-3.677z m-38.678 39.668c1.98-1.98 5.232-1.98 7.212 0 1.98 1.98 1.98 5.233 0 7.213L510.441 766.78c-1.98 1.98-5.233 1.98-7.213 0-1.98-1.98-1.98-5.232 0-7.212L682.48 580.317zM499.693 763.104c1.98-1.98 5.232-1.98 7.212 0 1.98 1.98 1.98 5.233 0 7.213l-3.606 3.606c-1.98 1.98-5.233 1.98-7.213 0-1.98-1.98-1.98-5.233 0-7.212l3.607-3.607z m-39.457 39.457c1.98-1.98 5.233-1.98 7.213 0 1.98 1.98 1.98 5.232 0 7.212l-18.314 18.314c-57.842 57.842-146.796 69.014-216.729 28.921-2.404-1.414-3.252-4.525-1.838-6.93 1.414-2.404 4.525-3.252 6.93-1.838C303.4 886 387.332 875.464 441.921 820.875l18.314-18.314z m-226.91 43.204c2.404 1.414 3.181 4.596 1.697 6.93s-4.597 3.182-6.93 1.697c-1.485-0.92-2.97-1.839-4.384-2.829-2.334-1.485-2.97-4.667-1.485-7s4.667-2.97 7-1.485c1.273 0.99 2.687 1.839 4.102 2.687z m-40.871-34.931c1.838 2.121 1.555 5.374-0.566 7.212-2.121 1.839-5.374 1.556-7.212-0.565-58.973-69.155-56.923-171.898 4.879-238.79 1.909-2.05 5.161-2.192 7.212-0.283s2.192 5.162 0.283 7.212c-58.336 63.004-60.246 159.948-4.596 225.214z m8.06-228.961c-1.98 1.98-5.161 2.05-7.141 0.07-1.98-1.98-2.05-5.161-0.07-7.141l1.272-1.273 2.404-2.404c1.98-1.98 5.233-1.98 7.213 0 1.98 1.98 1.98 5.232 0 7.212l-2.404 2.404c-0.495 0.354-0.849 0.708-1.273 1.132z m39.387-39.386c-1.98 1.98-5.233 1.98-7.213 0-1.98-1.98-1.98-5.233 0-7.213l179.252-179.251c1.98-1.98 5.232-1.98 7.212 0 1.98 1.98 1.98 5.232 0 7.212L239.902 542.487z m182.857-182.858c-1.98 1.98-5.232 1.98-7.212 0-1.98-1.98-1.98-5.232 0-7.212l3.606-3.607c1.98-1.98 5.233-1.98 7.213 0 1.98 1.98 1.98 5.233 0 7.213l-3.607 3.606z m39.386-39.386c-1.98 1.98-5.232 1.98-7.212 0-1.98-1.98-1.98-5.232 0-7.212l8.414-8.415c61.448-61.447 157.614-69.933 228.537-21.496 2.334 1.627 2.9 4.738 1.344 7-1.627 2.334-4.738 2.9-7 1.344-66.893-45.679-157.685-37.618-215.668 20.365l-8.415 8.414z m228.113-25.88c-2.263-1.697-2.829-4.808-1.131-7.07 1.697-2.264 4.808-2.83 7.07-1.132 1.415 0.99 2.758 2.05 4.173 3.182 2.262 1.697 2.616 4.879 0.919 7.142s-4.88 2.616-7.142 0.919a38.594 38.594 0 0 0-3.89-3.04z" fill="#061B34" p-id="3817"></path><path d="M336.139 390.53l175.645 175.645c1.98 1.98 1.98 5.233 0 7.213-1.98 1.98-5.232 1.98-7.212 0L328.926 397.742c-1.98-1.98-1.98-5.232 0-7.212 1.98-1.98 5.233-1.98 7.213 0z" fill="#061B34" p-id="3818"></path><path d="M585.5 424.4c-8.4 0-15.2-6.8-15.2-15.2 0-8.4 6.8-15.2 15.2-15.2s15.2 6.8 15.2 15.2c0 8.4-6.8 15.2-15.2 15.2z m50.7 50.7c-8.4 0-15.2-6.8-15.2-15.2 0-8.4 6.8-15.2 15.2-15.2s15.2 6.8 15.2 15.2c0 8.4-6.8 15.2-15.2 15.2z m-90.6-6.5l28.7 28.7c2 2 2 5.2 0 7.2s-5.2 2-7.2 0l-28.7-28.7c-2-2-2-5.2 0-7.2s5.2-2 7.2 0zM387.8 678.2c8.4 0 15.2 6.8 15.2 15.2s-6.8 15.2-15.2 15.2c-8.4 0-15.2-6.8-15.2-15.2s6.8-15.2 15.2-15.2z m-50.7-50.7c8.4 0 15.2 6.8 15.2 15.2s-6.8 15.2-15.2 15.2c-8.4 0-15.2-6.8-15.2-15.2s6.8-15.2 15.2-15.2z m90.6 6.6L399 605.4c-2-2-2-5.2 0-7.2s5.2-2 7.2 0l28.7 28.7c2 2 2 5.2 0 7.2s-5.2 2-7.2 0z" fill="#061B34" p-id="3819"></path><path d="M136.9 277.4h65.9c7 0 12.7 5.7 12.7 12.7 0 7-5.7 12.7-12.7 12.7h-65.9c-7 0-12.7-5.7-12.7-12.7 0-7 5.7-12.7 12.7-12.7z m25.3 25.4h65.9c7 0 12.7 5.7 12.7 12.7s-5.7 12.7-12.7 12.7h-65.9c-7 0-12.7-5.7-12.7-12.7s5.7-12.7 12.7-12.7zM846.6 769.1h65.9c7 0 12.7 5.7 12.7 12.7 0 7-5.7 12.7-12.7 12.7h-65.9c-7 0-12.7-5.7-12.7-12.7 0-7 5.7-12.7 12.7-12.7z m25.3 25.4h65.9c7 0 12.7 5.7 12.7 12.7s-5.7 12.7-12.7 12.7h-65.9c-7 0-12.7-5.7-12.7-12.7s5.7-12.7 12.7-12.7z" fill="#BECFE3" p-id="3820"></path></svg>